<mxfile host="app.diagrams.net" modified="2021-11-03T11:43:36.289Z" agent="5.0 (Windows NT 10.0; Win64; x64) AppleWebKit/537.36 (KHTML, like Gecko) Chrome/95.0.4638.69 Safari/537.36" etag="O4VXFbf-gAxA064F5drG" version="15.5.9" type="github">
  <diagram id="lrhLsJX2yUSMlCCj1Gpn" name="Page-1">
    <mxGraphModel dx="1584" dy="1452" grid="0" gridSize="10" guides="1" tooltips="1" connect="1" arrows="1" fold="1" page="0" pageScale="1" pageWidth="827" pageHeight="1169" math="0" shadow="0">
      <root>
        <mxCell id="0" />
        <mxCell id="1" parent="0" />
        <mxCell id="bmkUaZgau6YD2sTPp1_z-1" value="存取款" style="rhombus;whiteSpace=wrap;html=1;sketch=1;hachureGap=4;pointerEvents=0;fontFamily=Architects Daughter;fontSource=https%3A%2F%2Ffonts.googleapis.com%2Fcss%3Ffamily%3DArchitects%2BDaughter;fontSize=20;" vertex="1" parent="1">
          <mxGeometry x="277" y="137" width="136" height="94" as="geometry" />
        </mxCell>
        <mxCell id="bmkUaZgau6YD2sTPp1_z-10" value="" style="edgeStyle=none;shape=link;rounded=0;sketch=1;hachureGap=4;orthogonalLoop=1;jettySize=auto;html=1;fontFamily=Architects Daughter;fontSource=https%3A%2F%2Ffonts.googleapis.com%2Fcss%3Ffamily%3DArchitects%2BDaughter;fontSize=16;endArrow=open;sourcePerimeterSpacing=8;targetPerimeterSpacing=8;width=1.4285714285714288;entryX=1;entryY=0.5;entryDx=0;entryDy=0;" edge="1" parent="1" source="bmkUaZgau6YD2sTPp1_z-2" target="bmkUaZgau6YD2sTPp1_z-1">
          <mxGeometry relative="1" as="geometry">
            <mxPoint x="486.00000000000045" y="184" as="targetPoint" />
          </mxGeometry>
        </mxCell>
        <mxCell id="bmkUaZgau6YD2sTPp1_z-2" value="银行" style="rounded=0;whiteSpace=wrap;html=1;sketch=1;hachureGap=4;pointerEvents=0;fontFamily=Architects Daughter;fontSource=https%3A%2F%2Ffonts.googleapis.com%2Fcss%3Ffamily%3DArchitects%2BDaughter;fontSize=20;" vertex="1" parent="1">
          <mxGeometry x="618" y="154" width="120" height="60" as="geometry" />
        </mxCell>
        <mxCell id="bmkUaZgau6YD2sTPp1_z-9" value="" style="edgeStyle=none;shape=link;rounded=0;sketch=1;hachureGap=4;orthogonalLoop=1;jettySize=auto;html=1;fontFamily=Architects Daughter;fontSource=https%3A%2F%2Ffonts.googleapis.com%2Fcss%3Ffamily%3DArchitects%2BDaughter;fontSize=16;endArrow=open;sourcePerimeterSpacing=8;targetPerimeterSpacing=8;width=1.6666666666666679;entryX=0;entryY=0.5;entryDx=0;entryDy=0;" edge="1" parent="1" target="bmkUaZgau6YD2sTPp1_z-1">
          <mxGeometry relative="1" as="geometry">
            <mxPoint x="136" y="184" as="sourcePoint" />
            <mxPoint x="232" y="184" as="targetPoint" />
          </mxGeometry>
        </mxCell>
        <mxCell id="bmkUaZgau6YD2sTPp1_z-3" value="储户" style="rounded=0;whiteSpace=wrap;html=1;sketch=1;hachureGap=4;pointerEvents=0;fontFamily=Architects Daughter;fontSource=https%3A%2F%2Ffonts.googleapis.com%2Fcss%3Ffamily%3DArchitects%2BDaughter;fontSize=20;" vertex="1" parent="1">
          <mxGeometry x="8" y="154" width="120" height="60" as="geometry" />
        </mxCell>
        <mxCell id="bmkUaZgau6YD2sTPp1_z-6" value="M" style="text;html=1;align=center;verticalAlign=middle;resizable=0;points=[];autosize=1;strokeColor=none;fillColor=none;sketch=1;hachureGap=4;pointerEvents=0;fontFamily=Architects Daughter;fontSource=https%3A%2F%2Ffonts.googleapis.com%2Fcss%3Ffamily%3DArchitects%2BDaughter;fontSize=20;" vertex="1" parent="1">
          <mxGeometry x="157" y="152" width="29" height="28" as="geometry" />
        </mxCell>
        <mxCell id="bmkUaZgau6YD2sTPp1_z-7" value="N" style="text;html=1;align=center;verticalAlign=middle;resizable=0;points=[];autosize=1;strokeColor=none;fillColor=none;sketch=1;hachureGap=4;pointerEvents=0;fontFamily=Architects Daughter;fontSource=https%3A%2F%2Ffonts.googleapis.com%2Fcss%3Ffamily%3DArchitects%2BDaughter;fontSize=20;" vertex="1" parent="1">
          <mxGeometry x="526" y="156" width="26" height="28" as="geometry" />
        </mxCell>
        <mxCell id="bmkUaZgau6YD2sTPp1_z-15" value="" style="edgeStyle=none;shape=link;rounded=0;sketch=1;hachureGap=4;orthogonalLoop=1;jettySize=auto;html=1;fontFamily=Architects Daughter;fontSource=https%3A%2F%2Ffonts.googleapis.com%2Fcss%3Ffamily%3DArchitects%2BDaughter;fontSize=16;endArrow=open;sourcePerimeterSpacing=8;targetPerimeterSpacing=8;entryX=0.25;entryY=0;entryDx=0;entryDy=0;width=1.4285714285714288;" edge="1" parent="1" source="bmkUaZgau6YD2sTPp1_z-11" target="bmkUaZgau6YD2sTPp1_z-2">
          <mxGeometry relative="1" as="geometry" />
        </mxCell>
        <mxCell id="bmkUaZgau6YD2sTPp1_z-11" value="名称" style="rounded=1;whiteSpace=wrap;html=1;sketch=1;hachureGap=4;pointerEvents=0;fontFamily=Architects Daughter;fontSource=https%3A%2F%2Ffonts.googleapis.com%2Fcss%3Ffamily%3DArchitects%2BDaughter;fontSize=20;" vertex="1" parent="1">
          <mxGeometry x="459" y="34" width="120" height="52" as="geometry" />
        </mxCell>
        <mxCell id="bmkUaZgau6YD2sTPp1_z-14" value="" style="edgeStyle=none;shape=link;rounded=0;sketch=1;hachureGap=4;orthogonalLoop=1;jettySize=auto;html=1;fontFamily=Architects Daughter;fontSource=https%3A%2F%2Ffonts.googleapis.com%2Fcss%3Ffamily%3DArchitects%2BDaughter;fontSize=16;endArrow=open;sourcePerimeterSpacing=8;targetPerimeterSpacing=8;width=0;" edge="1" parent="1" source="bmkUaZgau6YD2sTPp1_z-12" target="bmkUaZgau6YD2sTPp1_z-2">
          <mxGeometry relative="1" as="geometry" />
        </mxCell>
        <mxCell id="bmkUaZgau6YD2sTPp1_z-12" value="地址" style="rounded=1;whiteSpace=wrap;html=1;sketch=1;hachureGap=4;pointerEvents=0;fontFamily=Architects Daughter;fontSource=https%3A%2F%2Ffonts.googleapis.com%2Fcss%3Ffamily%3DArchitects%2BDaughter;fontSize=20;" vertex="1" parent="1">
          <mxGeometry x="600" y="10" width="120" height="52" as="geometry" />
        </mxCell>
        <mxCell id="bmkUaZgau6YD2sTPp1_z-16" style="edgeStyle=none;shape=link;rounded=0;sketch=1;hachureGap=4;orthogonalLoop=1;jettySize=auto;html=1;exitX=0.5;exitY=1;exitDx=0;exitDy=0;entryX=0.75;entryY=0;entryDx=0;entryDy=0;fontFamily=Architects Daughter;fontSource=https%3A%2F%2Ffonts.googleapis.com%2Fcss%3Ffamily%3DArchitects%2BDaughter;fontSize=16;endArrow=open;sourcePerimeterSpacing=8;targetPerimeterSpacing=8;width=0;" edge="1" parent="1" source="bmkUaZgau6YD2sTPp1_z-13" target="bmkUaZgau6YD2sTPp1_z-2">
          <mxGeometry relative="1" as="geometry" />
        </mxCell>
        <mxCell id="bmkUaZgau6YD2sTPp1_z-13" value="名称" style="rounded=1;whiteSpace=wrap;html=1;sketch=1;hachureGap=4;pointerEvents=0;fontFamily=Architects Daughter;fontSource=https%3A%2F%2Ffonts.googleapis.com%2Fcss%3Ffamily%3DArchitects%2BDaughter;fontSize=20;" vertex="1" parent="1">
          <mxGeometry x="749" y="44" width="120" height="52" as="geometry" />
        </mxCell>
        <mxCell id="bmkUaZgau6YD2sTPp1_z-17" value="名称" style="rounded=1;whiteSpace=wrap;html=1;sketch=1;hachureGap=4;pointerEvents=0;fontFamily=Architects Daughter;fontSource=https%3A%2F%2Ffonts.googleapis.com%2Fcss%3Ffamily%3DArchitects%2BDaughter;fontSize=20;" vertex="1" parent="1">
          <mxGeometry x="459" y="34" width="120" height="52" as="geometry" />
        </mxCell>
        <mxCell id="bmkUaZgau6YD2sTPp1_z-18" value="地址" style="rounded=1;whiteSpace=wrap;html=1;sketch=1;hachureGap=4;pointerEvents=0;fontFamily=Architects Daughter;fontSource=https%3A%2F%2Ffonts.googleapis.com%2Fcss%3Ffamily%3DArchitects%2BDaughter;fontSize=20;" vertex="1" parent="1">
          <mxGeometry x="600" y="10" width="120" height="52" as="geometry" />
        </mxCell>
        <mxCell id="bmkUaZgau6YD2sTPp1_z-19" value="电话" style="rounded=1;whiteSpace=wrap;html=1;sketch=1;hachureGap=4;pointerEvents=0;fontFamily=Architects Daughter;fontSource=https%3A%2F%2Ffonts.googleapis.com%2Fcss%3Ffamily%3DArchitects%2BDaughter;fontSize=20;" vertex="1" parent="1">
          <mxGeometry x="749" y="44" width="120" height="52" as="geometry" />
        </mxCell>
        <mxCell id="bmkUaZgau6YD2sTPp1_z-33" style="edgeStyle=none;shape=link;rounded=0;sketch=1;hachureGap=4;orthogonalLoop=1;jettySize=auto;html=1;exitX=0.5;exitY=1;exitDx=0;exitDy=0;entryX=0.25;entryY=0;entryDx=0;entryDy=0;fontFamily=Architects Daughter;fontSource=https%3A%2F%2Ffonts.googleapis.com%2Fcss%3Ffamily%3DArchitects%2BDaughter;fontSize=16;endArrow=open;sourcePerimeterSpacing=8;targetPerimeterSpacing=8;width=0;" edge="1" parent="1" source="bmkUaZgau6YD2sTPp1_z-26" target="bmkUaZgau6YD2sTPp1_z-3">
          <mxGeometry relative="1" as="geometry" />
        </mxCell>
        <mxCell id="bmkUaZgau6YD2sTPp1_z-26" value="姓名" style="rounded=1;whiteSpace=wrap;html=1;sketch=1;hachureGap=4;pointerEvents=0;fontFamily=Architects Daughter;fontSource=https%3A%2F%2Ffonts.googleapis.com%2Fcss%3Ffamily%3DArchitects%2BDaughter;fontSize=20;" vertex="1" parent="1">
          <mxGeometry x="-137" y="27" width="120" height="52" as="geometry" />
        </mxCell>
        <mxCell id="bmkUaZgau6YD2sTPp1_z-29" value="" style="edgeStyle=none;shape=link;rounded=0;sketch=1;hachureGap=4;orthogonalLoop=1;jettySize=auto;html=1;fontFamily=Architects Daughter;fontSource=https%3A%2F%2Ffonts.googleapis.com%2Fcss%3Ffamily%3DArchitects%2BDaughter;fontSize=16;endArrow=open;sourcePerimeterSpacing=8;targetPerimeterSpacing=8;width=-1.4285714285714288;entryX=0.5;entryY=0;entryDx=0;entryDy=0;" edge="1" parent="1" source="bmkUaZgau6YD2sTPp1_z-27" target="bmkUaZgau6YD2sTPp1_z-3">
          <mxGeometry relative="1" as="geometry" />
        </mxCell>
        <mxCell id="bmkUaZgau6YD2sTPp1_z-27" value="地址" style="rounded=1;whiteSpace=wrap;html=1;sketch=1;hachureGap=4;pointerEvents=0;fontFamily=Architects Daughter;fontSource=https%3A%2F%2Ffonts.googleapis.com%2Fcss%3Ffamily%3DArchitects%2BDaughter;fontSize=20;" vertex="1" parent="1">
          <mxGeometry x="-46" y="-46" width="120" height="52" as="geometry" />
        </mxCell>
        <mxCell id="bmkUaZgau6YD2sTPp1_z-32" style="edgeStyle=none;shape=link;rounded=0;sketch=1;hachureGap=4;orthogonalLoop=1;jettySize=auto;html=1;exitX=0.5;exitY=1;exitDx=0;exitDy=0;entryX=0.75;entryY=0;entryDx=0;entryDy=0;fontFamily=Architects Daughter;fontSource=https%3A%2F%2Ffonts.googleapis.com%2Fcss%3Ffamily%3DArchitects%2BDaughter;fontSize=16;endArrow=open;sourcePerimeterSpacing=8;targetPerimeterSpacing=8;width=1.4285714285714288;" edge="1" parent="1" source="bmkUaZgau6YD2sTPp1_z-28" target="bmkUaZgau6YD2sTPp1_z-3">
          <mxGeometry relative="1" as="geometry" />
        </mxCell>
        <mxCell id="bmkUaZgau6YD2sTPp1_z-28" value="电话" style="rounded=1;whiteSpace=wrap;html=1;sketch=1;hachureGap=4;pointerEvents=0;fontFamily=Architects Daughter;fontSource=https%3A%2F%2Ffonts.googleapis.com%2Fcss%3Ffamily%3DArchitects%2BDaughter;fontSize=20;" vertex="1" parent="1">
          <mxGeometry x="153" y="37" width="120" height="52" as="geometry" />
        </mxCell>
        <mxCell id="bmkUaZgau6YD2sTPp1_z-31" style="edgeStyle=none;shape=link;rounded=0;sketch=1;hachureGap=4;orthogonalLoop=1;jettySize=auto;html=1;exitX=0.5;exitY=1;exitDx=0;exitDy=0;entryX=0.5;entryY=0;entryDx=0;entryDy=0;fontFamily=Architects Daughter;fontSource=https%3A%2F%2Ffonts.googleapis.com%2Fcss%3Ffamily%3DArchitects%2BDaughter;fontSize=16;endArrow=open;sourcePerimeterSpacing=8;targetPerimeterSpacing=8;width=1.4285714285714288;" edge="1" parent="1" source="bmkUaZgau6YD2sTPp1_z-30" target="bmkUaZgau6YD2sTPp1_z-3">
          <mxGeometry relative="1" as="geometry" />
        </mxCell>
        <mxCell id="bmkUaZgau6YD2sTPp1_z-30" value="身份证号码" style="rounded=1;whiteSpace=wrap;html=1;sketch=1;hachureGap=4;pointerEvents=0;fontFamily=Architects Daughter;fontSource=https%3A%2F%2Ffonts.googleapis.com%2Fcss%3Ffamily%3DArchitects%2BDaughter;fontSize=20;" vertex="1" parent="1">
          <mxGeometry x="94" y="-46" width="120" height="52" as="geometry" />
        </mxCell>
        <mxCell id="bmkUaZgau6YD2sTPp1_z-36" value="到期时间" style="rounded=1;whiteSpace=wrap;html=1;sketch=1;hachureGap=4;pointerEvents=0;fontFamily=Architects Daughter;fontSource=https%3A%2F%2Ffonts.googleapis.com%2Fcss%3Ffamily%3DArchitects%2BDaughter;fontSize=20;" vertex="1" parent="1">
          <mxGeometry x="273" y="310" width="144" height="53" as="geometry" />
        </mxCell>
        <mxCell id="bmkUaZgau6YD2sTPp1_z-42" style="edgeStyle=none;shape=link;rounded=0;sketch=1;hachureGap=4;orthogonalLoop=1;jettySize=auto;html=1;exitX=0.5;exitY=0;exitDx=0;exitDy=0;entryX=0;entryY=1;entryDx=0;entryDy=0;fontFamily=Architects Daughter;fontSource=https%3A%2F%2Ffonts.googleapis.com%2Fcss%3Ffamily%3DArchitects%2BDaughter;fontSize=16;endArrow=open;sourcePerimeterSpacing=8;targetPerimeterSpacing=8;width=0;" edge="1" parent="1" source="bmkUaZgau6YD2sTPp1_z-37" target="bmkUaZgau6YD2sTPp1_z-1">
          <mxGeometry relative="1" as="geometry" />
        </mxCell>
        <mxCell id="bmkUaZgau6YD2sTPp1_z-37" value="数额" style="rounded=1;whiteSpace=wrap;html=1;sketch=1;hachureGap=4;pointerEvents=0;fontFamily=Architects Daughter;fontSource=https%3A%2F%2Ffonts.googleapis.com%2Fcss%3Ffamily%3DArchitects%2BDaughter;fontSize=20;" vertex="1" parent="1">
          <mxGeometry x="51" y="298" width="144" height="53" as="geometry" />
        </mxCell>
        <mxCell id="bmkUaZgau6YD2sTPp1_z-38" value="性质" style="rounded=1;whiteSpace=wrap;html=1;sketch=1;hachureGap=4;pointerEvents=0;fontFamily=Architects Daughter;fontSource=https%3A%2F%2Ffonts.googleapis.com%2Fcss%3Ffamily%3DArchitects%2BDaughter;fontSize=20;" vertex="1" parent="1">
          <mxGeometry x="144.5" y="403" width="144" height="53" as="geometry" />
        </mxCell>
        <mxCell id="bmkUaZgau6YD2sTPp1_z-40" value="利率" style="rounded=1;whiteSpace=wrap;html=1;sketch=1;hachureGap=4;pointerEvents=0;fontFamily=Architects Daughter;fontSource=https%3A%2F%2Ffonts.googleapis.com%2Fcss%3Ffamily%3DArchitects%2BDaughter;fontSize=20;" vertex="1" parent="1">
          <mxGeometry x="402" y="403" width="144" height="53" as="geometry" />
        </mxCell>
        <mxCell id="bmkUaZgau6YD2sTPp1_z-41" value="密码" style="rounded=1;whiteSpace=wrap;html=1;sketch=1;hachureGap=4;pointerEvents=0;fontFamily=Architects Daughter;fontSource=https%3A%2F%2Ffonts.googleapis.com%2Fcss%3Ffamily%3DArchitects%2BDaughter;fontSize=20;" vertex="1" parent="1">
          <mxGeometry x="529" y="298" width="144" height="53" as="geometry" />
        </mxCell>
        <mxCell id="bmkUaZgau6YD2sTPp1_z-43" style="edgeStyle=none;shape=link;rounded=0;sketch=1;hachureGap=4;orthogonalLoop=1;jettySize=auto;html=1;exitX=0.5;exitY=0;exitDx=0;exitDy=0;entryX=0;entryY=1;entryDx=0;entryDy=0;fontFamily=Architects Daughter;fontSource=https%3A%2F%2Ffonts.googleapis.com%2Fcss%3Ffamily%3DArchitects%2BDaughter;fontSize=16;endArrow=open;sourcePerimeterSpacing=8;targetPerimeterSpacing=8;width=0;" edge="1" parent="1" source="bmkUaZgau6YD2sTPp1_z-38" target="bmkUaZgau6YD2sTPp1_z-1">
          <mxGeometry relative="1" as="geometry">
            <mxPoint x="154" y="340.5" as="sourcePoint" />
            <mxPoint x="342" y="250.00000000000023" as="targetPoint" />
          </mxGeometry>
        </mxCell>
        <mxCell id="bmkUaZgau6YD2sTPp1_z-44" style="edgeStyle=none;shape=link;rounded=0;sketch=1;hachureGap=4;orthogonalLoop=1;jettySize=auto;html=1;exitX=0.5;exitY=0;exitDx=0;exitDy=0;entryX=0.5;entryY=1;entryDx=0;entryDy=0;fontFamily=Architects Daughter;fontSource=https%3A%2F%2Ffonts.googleapis.com%2Fcss%3Ffamily%3DArchitects%2BDaughter;fontSize=16;endArrow=open;sourcePerimeterSpacing=8;targetPerimeterSpacing=8;width=0;" edge="1" parent="1" source="bmkUaZgau6YD2sTPp1_z-36" target="bmkUaZgau6YD2sTPp1_z-1">
          <mxGeometry relative="1" as="geometry">
            <mxPoint x="143" y="318" as="sourcePoint" />
            <mxPoint x="331" y="227.50000000000023" as="targetPoint" />
          </mxGeometry>
        </mxCell>
        <mxCell id="bmkUaZgau6YD2sTPp1_z-45" style="edgeStyle=none;shape=link;rounded=0;sketch=1;hachureGap=4;orthogonalLoop=1;jettySize=auto;html=1;exitX=0.5;exitY=0;exitDx=0;exitDy=0;entryX=1;entryY=1;entryDx=0;entryDy=0;fontFamily=Architects Daughter;fontSource=https%3A%2F%2Ffonts.googleapis.com%2Fcss%3Ffamily%3DArchitects%2BDaughter;fontSize=16;endArrow=open;sourcePerimeterSpacing=8;targetPerimeterSpacing=8;width=0;" edge="1" parent="1" source="bmkUaZgau6YD2sTPp1_z-40" target="bmkUaZgau6YD2sTPp1_z-1">
          <mxGeometry relative="1" as="geometry">
            <mxPoint x="153" y="328" as="sourcePoint" />
            <mxPoint x="341" y="237.50000000000023" as="targetPoint" />
          </mxGeometry>
        </mxCell>
        <mxCell id="bmkUaZgau6YD2sTPp1_z-46" style="edgeStyle=none;shape=link;rounded=0;sketch=1;hachureGap=4;orthogonalLoop=1;jettySize=auto;html=1;exitX=0.5;exitY=0;exitDx=0;exitDy=0;entryX=1;entryY=1;entryDx=0;entryDy=0;fontFamily=Architects Daughter;fontSource=https%3A%2F%2Ffonts.googleapis.com%2Fcss%3Ffamily%3DArchitects%2BDaughter;fontSize=16;endArrow=open;sourcePerimeterSpacing=8;targetPerimeterSpacing=8;width=0;" edge="1" parent="1" source="bmkUaZgau6YD2sTPp1_z-41" target="bmkUaZgau6YD2sTPp1_z-1">
          <mxGeometry relative="1" as="geometry">
            <mxPoint x="484" y="413" as="sourcePoint" />
            <mxPoint x="389" y="217.50000000000023" as="targetPoint" />
          </mxGeometry>
        </mxCell>
      </root>
    </mxGraphModel>
  </diagram>
</mxfile>
